<svg xmlns="http://www.w3.org/2000/svg" xmlns:xlink="http://www.w3.org/1999/xlink" width="500" zoomAndPan="magnify" viewBox="0 0 375 374.999991" height="500" preserveAspectRatio="xMidYMid meet" version="1.0"><defs><g/></defs><g fill="#ffffff" fill-opacity="1"><g transform="translate(49.425638, 223.788205)"><g><path d="M 28.109375 -11.015625 L 28.109375 0 L 0.8125 0 C 0.269531 0 0 -0.222656 0 -0.671875 L 0 -58.515625 C 0 -58.953125 0.269531 -59.171875 0.8125 -59.171875 L 28.109375 -59.171875 L 28.109375 -48.453125 L 11.3125 -48.453125 L 11.3125 -35.0625 L 34.546875 -35.0625 C 35.085938 -35.0625 35.359375 -34.835938 35.359375 -34.390625 L 35.359375 -25 C 35.359375 -24.550781 35.085938 -24.328125 34.546875 -24.328125 L 11.3125 -24.328125 L 11.3125 -11.015625 Z M 28.109375 -11.015625 "/></g></g></g><g fill="#ffffff" fill-opacity="1"><g transform="translate(79.594157, 223.788205)"><g><path d="M 31.953125 -11.015625 C 32.492188 -11.015625 32.765625 -10.769531 32.765625 -10.28125 L 32.765625 -0.671875 C 32.765625 -0.222656 32.492188 0 31.953125 0 L 0.8125 0 C 0.269531 0 0 -0.222656 0 -0.671875 L 0 -11.015625 Z M 11.3125 -22.34375 L 0 -22.34375 L 0 -58.515625 C 0 -58.953125 0.269531 -59.171875 0.8125 -59.171875 L 10.578125 -59.171875 C 11.066406 -59.171875 11.3125 -58.953125 11.3125 -58.515625 Z M 11.3125 -22.34375 "/></g></g></g><g fill="#ffffff" fill-opacity="1"><g transform="translate(107.100568, 223.788205)"><g><path d="M 46.453125 -0.890625 C 46.546875 -0.691406 46.519531 -0.492188 46.375 -0.296875 C 46.226562 -0.0976562 46.03125 0 45.78125 0 L 35.578125 0 C 35.234375 0 35.007812 -0.144531 34.90625 -0.4375 L 23.21875 -33.4375 L 11.6875 -0.4375 C 11.632812 -0.144531 11.390625 0 10.953125 0 L 0.8125 0 C 0.46875 0 0.234375 -0.0976562 0.109375 -0.296875 C -0.015625 -0.492188 -0.0234375 -0.691406 0.078125 -0.890625 L 22.484375 -58.734375 C 22.585938 -59.023438 22.832031 -59.171875 23.21875 -59.171875 C 23.613281 -59.171875 23.863281 -59.023438 23.96875 -58.734375 Z M 46.453125 -0.890625 "/></g></g></g><g fill="#ffffff" fill-opacity="1"><g transform="translate(148.952786, 223.788205)"><g><path d="M 11.3125 -33.5 L 0 -33.5 L 0 -58.515625 C 0 -58.953125 0.269531 -59.171875 0.8125 -59.171875 L 10.5 -59.171875 C 11.039062 -59.171875 11.3125 -58.953125 11.3125 -58.515625 Z M 44.234375 -59.171875 C 44.773438 -59.171875 45.046875 -58.953125 45.046875 -58.515625 L 45.046875 -0.671875 C 45.046875 -0.222656 44.773438 0 44.234375 0 L 34.546875 0 C 34.003906 0 33.734375 -0.222656 33.734375 -0.671875 L 33.734375 -11.09375 L 11.3125 -11.09375 L 11.3125 -0.671875 C 11.3125 -0.222656 11.039062 0 10.5 0 L 0.8125 0 C 0.269531 0 0 -0.222656 0 -0.671875 L 0 -22.1875 L 11.3125 -22.1875 L 11.3125 -22.109375 L 33.734375 -22.109375 L 33.734375 -58.515625 C 33.734375 -58.953125 34.003906 -59.171875 34.546875 -59.171875 Z M 44.234375 -59.171875 "/></g></g></g><g fill="#ffffff" fill-opacity="1"><g transform="translate(189.326059, 223.788205)"><g><path d="M 46.453125 -0.890625 C 46.546875 -0.691406 46.519531 -0.492188 46.375 -0.296875 C 46.226562 -0.0976562 46.03125 0 45.78125 0 L 35.578125 0 C 35.234375 0 35.007812 -0.144531 34.90625 -0.4375 L 23.21875 -33.4375 L 11.6875 -0.4375 C 11.632812 -0.144531 11.390625 0 10.953125 0 L 0.8125 0 C 0.46875 0 0.234375 -0.0976562 0.109375 -0.296875 C -0.015625 -0.492188 -0.0234375 -0.691406 0.078125 -0.890625 L 22.484375 -58.734375 C 22.585938 -59.023438 22.832031 -59.171875 23.21875 -59.171875 C 23.613281 -59.171875 23.863281 -59.023438 23.96875 -58.734375 Z M 46.453125 -0.890625 "/></g></g></g><g fill="#ffffff" fill-opacity="1"><g transform="translate(231.178285, 223.788205)"><g><path d="M 10.5 -59.171875 C 13.363281 -59.171875 16.394531 -58.972656 19.59375 -58.578125 C 22.800781 -58.179688 25.910156 -57.414062 28.921875 -56.28125 C 31.929688 -55.15625 34.65625 -53.503906 37.09375 -51.328125 C 39.53125 -49.160156 41.476562 -46.3125 42.9375 -42.78125 C 44.394531 -39.257812 45.125 -34.863281 45.125 -29.59375 C 45.125 -24.507812 44.40625 -20.226562 42.96875 -16.75 C 41.539062 -13.28125 39.617188 -10.445312 37.203125 -8.25 C 34.785156 -6.050781 32.0625 -4.347656 29.03125 -3.140625 C 26 -1.929688 22.890625 -1.101562 19.703125 -0.65625 C 16.523438 -0.21875 13.457031 0 10.5 0 L 0.8125 0 C 0.269531 0 0 -0.222656 0 -0.671875 L 0 -23.890625 L 11.3125 -23.890625 L 11.3125 -10.875 C 12.75 -10.820312 14.425781 -10.859375 16.34375 -10.984375 C 18.269531 -11.109375 20.242188 -11.476562 22.265625 -12.09375 C 24.285156 -12.707031 26.171875 -13.679688 27.921875 -15.015625 C 29.671875 -16.347656 31.078125 -18.195312 32.140625 -20.5625 C 33.203125 -22.925781 33.734375 -25.9375 33.734375 -29.59375 C 33.734375 -34.269531 32.757812 -38.023438 30.8125 -40.859375 C 28.863281 -43.703125 26.195312 -45.726562 22.8125 -46.9375 C 19.4375 -48.144531 15.601562 -48.625 11.3125 -48.375 L 11.3125 -35.28125 L 0 -35.28125 L 0 -58.515625 C 0 -58.953125 0.269531 -59.171875 0.8125 -59.171875 Z M 10.5 -59.171875 "/></g></g></g><g fill="#ffffff" fill-opacity="1"><g transform="translate(271.6255, 223.788205)"><g><path d="M 33.578125 -47.859375 L 47.34375 -47.859375 L 33.0625 -27.8125 L 33.0625 -0.671875 C 33.0625 -0.222656 32.789062 0 32.25 0 L 22.5625 0 C 22.019531 0 21.75 -0.222656 21.75 -0.671875 L 21.75 -27.8125 C 18.195312 -32.894531 14.609375 -37.945312 10.984375 -42.96875 C 7.359375 -48 3.742188 -53.03125 0.140625 -58.0625 C -0.046875 -58.3125 -0.0664062 -58.554688 0.078125 -58.796875 C 0.222656 -59.046875 0.492188 -59.171875 0.890625 -59.171875 L 12.578125 -59.171875 C 12.921875 -59.171875 13.164062 -59.097656 13.3125 -58.953125 L 27.375 -39.203125 Z M 33.578125 -47.859375 "/></g></g></g><g fill="#ffffff" fill-opacity="1"><g transform="translate(314.36509, 223.788205)"><g><path d="M 10.65625 -5.171875 C 10.65625 -3.742188 10.132812 -2.523438 9.09375 -1.515625 C 8.0625 -0.503906 6.78125 0 5.25 0 C 3.820312 0 2.585938 -0.503906 1.546875 -1.515625 C 0.515625 -2.523438 0 -3.742188 0 -5.171875 C 0 -6.609375 0.515625 -7.84375 1.546875 -8.875 C 2.585938 -9.90625 3.820312 -10.421875 5.25 -10.421875 C 6.78125 -10.421875 8.0625 -9.90625 9.09375 -8.875 C 10.132812 -7.84375 10.65625 -6.609375 10.65625 -5.171875 Z M 10.65625 -5.171875 "/></g></g></g></svg>